<?xml version="1.0" standalone="no"?><!DOCTYPE svg PUBLIC "-//W3C//DTD SVG 1.1//EN" "http://www.w3.org/Graphics/SVG/1.1/DTD/svg11.dtd"><svg height="181" legacy-metrics="false" node-id="1" sillyvg="true" template-height="181" template-width="248" version="1.1" viewBox="0 0 248 181" width="248" xmlns="http://www.w3.org/2000/svg" xmlns:xlink="http://www.w3.org/1999/xlink"><defs node-id="34"></defs><g node-id="36"><g node-id="37"><g node-id="38"><path d="M 78.31 84.16 L 81.01 84.00 L 80.74 86.97 L 80.65 90.00 L 80.90 94.94 L 81.60 99.67 L 82.75 104.24 L 81.44 104.89 L 80.40 105.90 L 79.73 107.19 L 79.48 108.70 L 79.66 109.97 L 80.11 111.06 L 80.84 112.01 L 81.78 112.74 L 82.86 113.20 L 84.12 113.38 L 86.56 113.38 L 88.53 116.68 L 90.72 119.79 L 93.15 122.73 L 63.45 122.73 L 62.17 122.55 L 61.08 122.09 L 60.13 121.36 L 59.39 120.41 L 58.93 119.32 L 58.75 118.05 L 58.93 116.78 L 59.39 115.69 L 60.13 114.75 L 61.08 114.01 L 62.17 113.56 L 63.45 113.38 L 65.01 113.38 L 66.29 113.20 L 67.38 112.74 L 68.33 112.01 L 69.07 111.06 L 69.53 109.97 L 69.71 108.70 L 69.53 107.43 L 69.07 106.34 L 68.33 105.40 L 67.38 104.66 L 66.29 104.21 L 65.01 104.03 L 29.24 104.03 L 27.97 103.85 L 26.87 103.39 L 25.92 102.66 L 25.18 101.71 L 24.73 100.62 L 24.55 99.35 L 24.73 98.08 L 25.18 96.99 L 25.92 96.04 L 26.87 95.31 L 27.97 94.86 L 29.24 94.68 L 57.09 94.68 L 58.36 94.50 L 59.46 94.04 L 60.41 93.31 L 61.15 92.36 L 61.60 91.27 L 61.78 90.00 L 61.60 88.73 L 61.15 87.64 L 60.41 86.69 L 59.46 85.96 L 58.36 85.50 L 57.09 85.32 L 53.03 85.32 L 51.75 85.14 L 50.66 84.69 L 49.71 83.96 L 48.97 83.01 L 48.51 81.92 L 48.33 80.65 L 48.51 79.38 L 48.97 78.29 L 49.71 77.34 L 50.66 76.61 L 51.75 76.15 L 53.03 75.97 L 60.55 75.97 L 62.86 78.33 L 65.46 80.31 L 68.37 81.94 L 71.48 83.15 L 74.78 83.89 L 78.31 84.16 Z M 192.84 113.38 L 194.11 113.56 L 195.21 114.01 L 196.16 114.75 L 196.90 115.69 L 197.35 116.78 L 197.53 118.05 L 197.35 119.32 L 196.90 120.41 L 196.16 121.36 L 195.21 122.09 L 194.11 122.55 L 192.84 122.73 L 166.33 122.73 L 168.76 119.79 L 170.96 116.68 L 172.92 113.38 L 192.84 113.38 Z M 202.08 93.51 L 203.05 93.68 L 203.89 94.12 L 204.65 94.88 L 205.42 96.33 L 205.71 98.18 L 205.42 100.04 L 204.65 101.49 L 203.89 102.24 L 203.05 102.68 L 202.08 102.86 L 177.13 102.86 L 178.14 98.27 L 178.71 93.51 L 202.08 93.51 Z M 189.71 75.97 L 190.98 76.15 L 192.08 76.61 L 193.03 77.34 L 193.77 78.29 L 194.22 79.38 L 194.40 80.65 L 194.22 81.92 L 193.77 83.01 L 193.03 83.96 L 192.07 84.69 L 190.98 85.14 L 189.71 85.32 L 178.61 85.32 L 177.92 80.55 L 176.80 75.97 L 189.71 75.97 Z M 54.94 60.78 L 55.13 63.77 L 55.67 66.62 L 44.66 66.62 L 43.39 66.44 L 42.30 65.99 L 41.34 65.25 L 40.60 64.31 L 40.15 63.22 L 39.97 61.95 L 40.15 60.68 L 40.60 59.59 L 41.34 58.64 L 42.30 57.91 L 43.39 57.45 L 44.66 57.27 L 55.20 57.27 L 54.94 60.78 Z M 177.18 57.27 L 178.46 57.45 L 179.55 57.91 L 180.51 58.64 L 181.24 59.59 L 181.70 60.68 L 181.88 61.95 L 181.70 63.22 L 181.24 64.31 L 180.51 65.25 L 179.55 65.99 L 178.46 66.44 L 177.18 66.62 L 172.92 66.62 L 170.96 63.32 L 168.76 60.21 L 166.33 57.27 L 177.18 57.27 Z" fill="#a3b1bf" fill-opacity="0.14969309" fill-rule="nonzero" group-id="1,2,3" id="Combined-Shape" node-id="7" stroke-linecap="butt" stroke-opacity="0.14969309" stroke-width="1" target-height="65.45596" target-width="181.16882" target-x="24.545454" target-y="57.27233"></path></g><g node-id="39"><path d="M 170.82 16.56 L 170.66 16.55 L 167.28 16.37 L 166.60 16.21 L 166.05 15.82 L 165.69 15.26 L 165.57 14.57 L 165.72 13.88 L 166.10 13.33 L 166.65 12.97 L 167.36 12.86 L 170.97 13.06 L 171.64 13.26 L 172.16 13.68 L 172.48 14.26 L 172.56 14.96 L 172.38 15.60 L 172.00 16.10 L 171.46 16.43 L 170.82 16.56 M 181.12 18.58 L 180.58 18.50 L 177.34 17.61 L 176.70 17.31 L 176.25 16.82 L 176.01 16.20 L 176.03 15.50 L 176.32 14.86 L 176.81 14.41 L 177.44 14.17 L 178.14 14.19 L 181.65 15.16 L 182.26 15.50 L 182.67 16.03 L 182.86 16.67 L 182.79 17.36 L 182.53 17.87 L 182.14 18.25 L 181.66 18.50 L 181.12 18.58 M 190.60 23.05 L 189.64 22.76 L 186.77 21.07 L 186.22 20.63 L 185.91 20.04 L 185.83 19.38 L 186.03 18.71 L 186.47 18.16 L 187.06 17.85 L 187.72 17.77 L 188.39 17.97 L 191.56 19.82 L 192.06 20.32 L 192.32 20.93 L 192.33 21.60 L 192.07 22.25 L 191.42 22.85 L 190.60 23.05 M 198.35 30.09 L 197.60 29.92 L 196.97 29.41 L 194.79 26.94 L 194.40 26.35 L 194.28 25.70 L 194.41 25.04 L 194.80 24.46 L 195.39 24.07 L 196.04 23.95 L 196.70 24.08 L 197.28 24.47 L 199.73 27.26 L 200.05 27.88 L 200.09 28.55 L 199.88 29.18 L 199.43 29.72 L 198.91 30.00 L 198.35 30.09 M 203.05 39.42 L 202.48 39.32 L 201.98 39.06 L 201.60 38.65 L 201.35 38.10 L 200.30 35.03 L 200.16 34.34 L 200.29 33.69 L 200.65 33.13 L 201.23 32.73 L 201.92 32.59 L 202.57 32.72 L 203.13 33.09 L 203.53 33.66 L 204.74 37.22 L 204.78 37.92 L 204.56 38.55 L 204.12 39.05 L 203.49 39.36 L 203.05 39.42 M 203.22 49.83 L 202.82 49.78 L 202.18 49.48 L 201.73 48.99 L 201.49 48.37 L 201.51 47.67 L 201.98 44.50 L 202.17 43.82 L 202.58 43.29 L 203.15 42.95 L 203.85 42.86 L 204.52 43.04 L 205.05 43.45 L 205.39 44.03 L 205.48 44.72 L 204.93 48.47 L 204.69 49.03 L 204.30 49.45 L 203.80 49.73 L 203.22 49.83 M 198.45 59.09 L 197.86 58.99 L 197.32 58.67 L 196.89 58.12 L 196.71 57.48 L 196.78 56.81 L 197.12 56.20 L 199.04 53.58 L 199.52 53.07 L 200.13 52.80 L 200.79 52.78 L 201.45 53.02 L 201.96 53.51 L 202.23 54.11 L 202.26 54.78 L 202.01 55.44 L 199.79 58.47 L 199.17 58.94 L 198.45 59.09 M 190.31 65.65 L 189.44 65.42 L 188.78 64.76 L 188.57 64.09 L 188.62 63.43 L 188.92 62.83 L 189.45 62.37 L 192.26 60.60 L 192.90 60.32 L 193.57 60.30 L 194.19 60.54 L 194.70 61.02 L 194.99 61.66 L 195.00 62.32 L 194.77 62.95 L 194.29 63.46 L 191.17 65.43 L 190.31 65.65 M 180.60 69.62 L 180.04 69.53 L 179.55 69.27 L 179.16 68.87 L 178.91 68.34 L 178.86 67.65 L 179.07 67.01 L 179.49 66.50 L 180.12 66.18 L 183.34 65.14 L 184.03 65.04 L 184.68 65.21 L 185.22 65.60 L 185.58 66.20 L 185.68 66.89 L 185.52 67.54 L 185.13 68.08 L 184.53 68.44 L 181.08 69.55 L 180.60 69.62 M 77.05 85.96 L 76.11 85.69 L 75.45 84.92 L 75.30 84.24 L 75.41 83.58 L 75.76 83.01 L 76.33 82.60 L 79.65 81.22 L 80.34 81.10 L 80.99 81.25 L 81.54 81.63 L 81.92 82.22 L 82.03 82.91 L 81.89 83.56 L 81.51 84.11 L 80.92 84.49 L 77.77 85.80 L 77.05 85.96 M 67.89 91.06 L 67.09 90.87 L 66.44 90.30 L 66.17 89.66 L 66.16 88.99 L 66.41 88.37 L 66.90 87.86 L 69.93 85.92 L 70.60 85.69 L 71.26 85.73 L 71.87 86.01 L 72.34 86.53 L 72.57 87.19 L 72.53 87.86 L 72.25 88.46 L 71.73 88.93 L 68.88 90.76 L 67.89 91.06 M 59.91 97.87 L 59.29 97.76 L 58.73 97.41 L 58.31 96.84 L 58.16 96.19 L 58.26 95.53 L 58.62 94.93 L 59.74 93.77 L 61.22 92.36 L 61.83 92.00 L 62.49 91.90 L 63.13 92.06 L 63.70 92.47 L 64.06 93.08 L 64.16 93.74 L 64.00 94.38 L 63.59 94.95 L 62.21 96.26 L 61.20 97.30 L 60.60 97.73 L 59.91 97.87 M 54.23 106.65 L 53.55 106.52 L 52.97 106.12 L 52.60 105.56 L 52.47 104.91 L 52.61 104.22 L 54.25 100.89 L 54.71 100.36 L 55.31 100.07 L 55.97 100.01 L 56.64 100.23 L 57.17 100.69 L 57.46 101.29 L 57.52 101.96 L 57.30 102.62 L 55.84 105.58 L 55.18 106.37 L 54.23 106.65 M 52.01 116.88 L 51.96 116.88 L 51.28 116.71 L 50.74 116.32 L 50.38 115.76 L 50.26 115.07 L 50.60 111.37 L 50.84 110.71 L 51.29 110.22 L 51.90 109.93 L 52.60 109.90 L 53.25 110.14 L 53.74 110.59 L 54.03 111.20 L 54.06 111.90 L 53.77 115.18 L 53.61 115.85 L 53.23 116.38 L 52.69 116.74 L 52.01 116.88 M 53.47 127.24 L 52.92 127.15 L 52.44 126.91 L 52.05 126.52 L 51.79 126.01 L 50.88 122.44 L 50.89 121.73 L 51.14 121.12 L 51.61 120.64 L 52.26 120.37 L 52.97 120.38 L 53.58 120.64 L 54.05 121.10 L 54.32 121.75 L 55.14 124.97 L 55.21 125.67 L 55.02 126.30 L 54.60 126.82 L 53.99 127.16 L 53.47 127.24 M 57.98 136.70 L 57.17 136.50 L 56.52 135.91 L 54.65 132.77 L 54.44 132.09 L 54.51 131.43 L 54.82 130.84 L 55.36 130.39 L 56.03 130.19 L 56.70 130.26 L 57.29 130.57 L 57.73 131.11 L 59.45 133.99 L 59.71 134.64 L 59.70 135.30 L 59.44 135.92 L 58.94 136.41 L 57.98 136.70 M 64.72 144.74 L 64.08 144.62 L 63.51 144.26 L 60.98 141.66 L 60.62 141.05 L 60.53 140.39 L 60.68 139.75 L 61.10 139.18 L 61.70 138.82 L 62.36 138.73 L 63.01 138.89 L 63.58 139.30 L 65.93 141.72 L 66.33 142.30 L 66.47 142.95 L 66.36 143.61 L 65.99 144.20 L 65.39 144.61 L 64.72 144.74 M 72.96 151.25 L 72.01 150.96 L 69.04 148.91 L 68.57 148.39 L 68.35 147.76 L 68.38 147.09 L 68.68 146.45 L 69.20 145.98 L 69.83 145.76 L 70.49 145.79 L 71.13 146.09 L 73.92 148.03 L 74.42 148.52 L 74.68 149.13 L 74.69 149.80 L 74.43 150.45 L 73.78 151.05 L 72.96 151.25" fill="#a3b1bf" fill-opacity="0.25385976" fill-rule="nonzero" group-id="1,2,4" id="Fill-1" node-id="9" stroke-linecap="butt" stroke-opacity="0.25385976" stroke-width="1" target-height="138.38844" target-width="155.22427" target-x="50.25997" target-y="12.859832"></path></g><g node-id="40"><g node-id="45"><path d="M 100.36 157.79 L 155.61 157.79 L 163.64 180.00 L 92.34 180.00 Z" fill="#a3b1bf" fill-opacity="0.24851656" fill-rule="nonzero" group-id="1,2,5,10" id="Rectangle-Copy-5" node-id="11" stroke-linecap="butt" stroke-opacity="0.24851656" stroke-width="1" target-height="22.207794" target-width="71.29869" target-x="92.33766" target-y="157.7922"></path></g></g><g node-id="41"><path d="M 80.34 149.61 L 124.21 149.61 L 132.08 171.82 L 72.47 171.82 Z" fill="#a3b1bf" fill-opacity="0.35244605" fill-rule="nonzero" group-id="1,2,6" id="Rectangle" node-id="14" stroke-linecap="butt" stroke-opacity="0.35244605" stroke-width="1" target-height="22.207779" target-width="59.610397" target-x="72.46753" target-y="149.6104"></path></g><path d="M 89.85 164.25 L 89.85 164.27 L 89.73 164.86 L 89.41 165.34 L 88.94 165.66 L 88.36 165.78 L 88.35 165.78 L 85.82 165.77 L 85.82 168.30 L 85.71 168.89 L 85.39 169.36 L 84.92 169.68 L 84.33 169.80 L 84.32 169.80 L 84.29 169.80 L 83.71 169.68 L 83.24 169.37 L 82.92 168.89 L 82.80 168.31 L 82.79 165.76 L 80.25 165.76 L 79.66 165.64 L 79.19 165.32 L 78.87 164.85 L 78.75 164.26 L 78.75 164.23 L 78.87 163.65 L 79.19 163.17 L 79.66 162.85 L 80.25 162.73 L 80.25 162.73 L 82.78 162.74 L 82.78 160.21 L 82.90 159.62 L 83.22 159.15 L 83.69 158.82 L 84.27 158.70 L 84.28 158.70 L 84.31 158.70 L 84.90 158.82 L 85.37 159.14 L 85.69 159.61 L 85.81 160.20 L 85.81 162.74 L 88.36 162.75 L 88.94 162.87 L 89.41 163.19 L 89.73 163.66 L 89.85 164.25 Z" fill="#a3b1bf" fill-rule="nonzero" group-id="1,2" id="Combined-Shape-Copy-7" node-id="15" stroke-linecap="butt" stroke-width="0.99999994" target-height="11.10141" target-width="11.101418" target-x="78.750336" target-y="158.7034"></path><path d="M 78.31 37.40 L 81.46 37.62 L 84.43 38.21 L 87.25 39.17 L 89.93 40.49 L 92.37 42.10 L 94.60 44.01 L 96.58 46.19 L 98.26 48.58 L 99.65 51.21 L 100.14 50.83 L 104.42 47.93 L 108.98 45.51 L 113.86 43.53 L 118.92 42.10 L 124.20 41.22 L 129.74 40.91 L 134.84 41.18 L 139.70 41.92 L 144.36 43.12 L 148.85 44.77 L 153.17 46.86 L 157.20 49.30 L 160.96 52.11 L 164.45 55.29 L 167.63 58.78 L 170.44 62.54 L 172.88 66.57 L 174.97 70.89 L 176.62 75.38 L 177.82 80.04 L 178.56 84.90 L 178.83 90.00 L 178.58 94.88 L 177.90 99.54 L 176.81 104.03 L 175.29 108.35 L 173.36 112.53 L 171.11 116.44 L 168.52 120.11 L 165.58 123.55 L 162.34 126.70 L 158.86 129.53 L 155.11 132.03 L 151.09 134.22 L 146.91 136.01 L 142.54 137.40 L 137.99 138.39 L 133.21 138.97 L 129.74 142.60 L 126.29 138.97 L 121.51 138.40 L 116.96 137.41 L 112.59 136.02 L 108.40 134.22 L 104.38 132.04 L 100.63 129.54 L 97.15 126.71 L 93.91 123.55 L 90.97 120.12 L 88.38 116.45 L 86.12 112.53 L 84.19 108.35 L 82.68 104.03 L 81.58 99.55 L 80.90 94.88 L 80.65 90.00 L 80.75 86.89 L 81.03 83.85 L 81.01 84.00 L 81.01 84.00 L 78.31 84.16 L 75.10 83.93 L 72.08 83.32 L 69.21 82.32 L 66.50 80.95 L 64.03 79.29 L 61.78 77.31 L 59.80 75.06 L 58.14 72.59 L 56.77 69.88 L 55.77 67.01 L 55.16 63.99 L 54.94 60.78 L 55.16 57.57 L 55.77 54.55 L 56.77 51.68 L 58.14 48.97 L 59.80 46.50 L 61.78 44.25 L 64.03 42.27 L 66.50 40.60 L 69.21 39.24 L 72.08 38.24 L 75.10 37.63 L 78.31 37.40 Z M 129.74 44.44 L 125.01 44.69 L 120.49 45.38 L 116.16 46.49 L 112.00 48.02 L 107.98 49.96 L 104.24 52.23 L 100.75 54.84 L 97.51 57.79 L 94.55 61.04 L 91.95 64.52 L 89.68 68.26 L 87.74 72.28 L 86.20 76.44 L 85.09 80.77 L 84.41 85.29 L 84.16 90.02 L 84.41 94.76 L 85.09 99.27 L 86.20 103.60 L 87.74 107.77 L 89.68 111.78 L 91.95 115.52 L 94.55 119.01 L 97.51 122.26 L 100.75 125.21 L 104.24 127.81 L 107.98 130.08 L 112.00 132.02 L 116.16 133.56 L 120.49 134.67 L 125.01 135.35 L 129.74 135.61 L 134.47 135.35 L 138.99 134.67 L 143.32 133.56 L 147.48 132.02 L 151.50 130.08 L 155.24 127.81 L 158.73 125.21 L 161.97 122.26 L 164.93 119.01 L 167.53 115.52 L 169.80 111.78 L 171.74 107.77 L 173.28 103.60 L 174.39 99.27 L 175.07 94.76 L 175.32 90.02 L 175.07 85.29 L 174.39 80.77 L 173.28 76.44 L 171.74 72.28 L 169.80 68.26 L 167.53 64.52 L 164.93 61.04 L 161.97 57.79 L 158.73 54.84 L 155.24 52.23 L 151.50 49.96 L 147.48 48.02 L 143.32 46.49 L 138.99 45.38 L 134.47 44.69 L 129.74 44.44 Z M 78.31 40.91 L 74.68 41.25 L 71.36 42.15 L 68.28 43.62 L 65.49 45.60 L 63.13 47.96 L 61.15 50.75 L 59.69 53.83 L 58.78 57.15 L 58.44 60.78 L 58.78 64.41 L 59.69 67.73 L 61.15 70.81 L 63.13 73.60 L 65.49 75.96 L 68.28 77.94 L 71.36 79.41 L 74.68 80.31 L 78.31 80.65 L 81.59 80.38 L 81.73 79.72 L 83.10 74.65 L 84.96 69.85 L 87.30 65.31 L 90.10 61.04 L 93.29 57.12 L 96.88 53.53 L 96.83 53.57 L 96.83 53.57 L 95.71 51.17 L 94.31 48.99 L 92.62 46.99 L 90.70 45.24 L 88.57 43.76 L 86.22 42.55 L 83.73 41.65 L 81.11 41.11 L 78.31 40.91 Z" fill="#a3b1bf" fill-rule="nonzero" group-id="1,2" id="Combined-Shape" node-id="13" stroke-linecap="butt" stroke-width="1" target-height="105.1948" target-width="123.896095" target-x="54.935066" target-y="37.402596"></path><path d="M 78.31 40.91 L 81.11 41.11 L 83.73 41.65 L 86.22 42.55 L 88.57 43.76 L 90.70 45.24 L 92.62 46.99 L 94.31 48.99 L 95.71 51.17 L 96.83 53.57 L 93.18 57.24 L 89.95 61.25 L 87.12 65.62 L 84.77 70.27 L 82.93 75.18 L 81.59 80.38 L 78.31 80.65 L 74.68 80.31 L 71.36 79.41 L 68.28 77.94 L 65.49 75.96 L 63.13 73.60 L 61.15 70.81 L 59.69 67.73 L 58.78 64.41 L 58.44 60.78 L 58.78 57.15 L 59.69 53.83 L 61.15 50.75 L 63.13 47.96 L 65.49 45.60 L 68.28 43.62 L 71.36 42.15 L 74.68 41.25 L 78.31 40.91 Z" fill="#a3b1bf" fill-opacity="0.1499721" fill-rule="nonzero" group-id="1,2,7" id="Combined-Shape" node-id="16" stroke-linecap="butt" stroke-opacity="0.1499721" stroke-width="1" target-height="39.74026" target-width="38.392494" target-x="58.44156" target-y="40.909092"></path><path d="M 129.74 44.42 L 134.47 44.67 L 138.99 45.35 L 143.32 46.46 L 147.48 48.00 L 151.50 49.94 L 155.24 52.21 L 158.73 54.81 L 161.97 57.77 L 164.93 61.01 L 167.53 64.50 L 169.80 68.24 L 171.74 72.26 L 173.28 76.42 L 174.39 80.75 L 175.07 85.27 L 175.32 90.00 L 175.07 94.73 L 174.39 99.25 L 173.28 103.58 L 171.74 107.74 L 169.80 111.76 L 167.53 115.50 L 164.93 118.99 L 161.97 122.23 L 158.73 125.19 L 155.24 127.79 L 151.50 130.06 L 147.48 132.00 L 143.32 133.54 L 138.99 134.65 L 134.47 135.33 L 129.74 135.58 L 125.01 135.33 L 120.49 134.65 L 116.16 133.54 L 112.00 132.00 L 107.98 130.06 L 104.24 127.79 L 100.75 125.19 L 97.51 122.23 L 94.55 118.99 L 91.95 115.50 L 89.68 111.76 L 87.74 107.74 L 86.20 103.58 L 85.09 99.25 L 84.41 94.73 L 84.16 90.00 L 84.41 85.27 L 85.09 80.75 L 86.20 76.42 L 87.74 72.26 L 89.68 68.24 L 91.95 64.50 L 94.55 61.01 L 97.51 57.77 L 100.75 54.81 L 104.24 52.21 L 107.98 49.94 L 112.00 48.00 L 116.16 46.46 L 120.49 45.35 L 125.01 44.67 L 129.74 44.42 Z M 129.74 47.92 L 125.37 48.16 L 121.20 48.79 L 117.21 49.81 L 113.36 51.23 L 109.66 53.02 L 106.20 55.12 L 102.98 57.52 L 99.99 60.25 L 97.26 63.24 L 94.86 66.46 L 92.76 69.92 L 90.97 73.62 L 89.55 77.46 L 88.53 81.46 L 87.90 85.63 L 87.66 90.00 L 87.90 94.37 L 88.53 98.54 L 89.55 102.54 L 90.97 106.38 L 92.76 110.08 L 94.86 113.54 L 97.26 116.76 L 99.99 119.75 L 102.98 122.48 L 106.20 124.88 L 109.66 126.98 L 113.36 128.77 L 117.21 130.19 L 121.20 131.21 L 125.37 131.84 L 129.74 132.08 L 134.11 131.84 L 138.28 131.21 L 142.28 130.19 L 146.12 128.77 L 149.82 126.98 L 153.28 124.88 L 156.50 122.48 L 159.49 119.75 L 162.22 116.76 L 164.62 113.54 L 166.72 110.08 L 168.51 106.38 L 169.93 102.54 L 170.95 98.54 L 171.58 94.37 L 171.82 90.00 L 171.58 85.63 L 170.95 81.46 L 169.93 77.46 L 168.51 73.62 L 166.72 69.92 L 164.62 66.46 L 162.22 63.24 L 159.49 60.25 L 156.50 57.52 L 153.28 55.12 L 149.82 53.02 L 146.12 51.23 L 142.28 49.81 L 138.28 48.79 L 134.11 48.16 L 129.74 47.92 Z" fill="#a3b1bf" fill-opacity="0.24807012" fill-rule="nonzero" group-id="1,2,8" id="Combined-Shape" node-id="17" stroke-linecap="butt" stroke-opacity="0.24807012" stroke-width="1" target-height="91.16882" target-width="91.16883" target-x="84.155846" target-y="44.415585"></path><path d="M 129.23 64.99 L 131.59 65.17 L 133.80 65.66 L 135.88 66.45 L 137.83 67.53 L 139.59 68.83 L 141.15 70.38 L 142.49 72.14 L 143.57 74.05 L 144.39 76.15 L 145.08 76.15 L 145.08 86.30 L 139.97 86.30 L 139.97 76.15 L 140.34 76.15 L 139.21 74.09 L 137.76 72.33 L 135.97 70.85 L 133.93 69.74 L 131.70 69.06 L 129.23 68.80 L 126.76 69.06 L 124.53 69.74 L 122.49 70.85 L 120.69 72.33 L 119.25 74.09 L 118.12 76.15 L 119.51 76.15 L 119.51 86.30 L 113.38 86.30 L 113.38 76.15 L 114.07 76.15 L 114.89 74.05 L 115.97 72.14 L 117.31 70.38 L 118.87 68.83 L 120.62 67.53 L 122.58 66.45 L 124.66 65.66 L 126.87 65.17 L 129.23 64.99 Z" fill="#a3b1bf" fill-opacity="0.25142765" fill-rule="nonzero" group-id="1,2,9,11" id="Combined-Shape-Copy-5" node-id="20" stroke-linecap="butt" stroke-opacity="0.25142765" stroke-width="1" target-height="21.303604" target-width="31.704544" target-x="113.37662" target-y="64.991425"></path><path d="M 129.23 63.45 L 132.50 63.77 L 135.50 64.68 L 138.26 66.13 L 140.66 68.05 L 142.60 70.30 L 144.12 72.88 L 145.13 75.71 L 145.60 78.79 L 145.62 79.22 L 145.63 84.75 L 150.29 84.75 L 151.27 84.95 L 152.05 85.48 L 152.55 86.18 L 152.78 87.05 L 152.79 87.25 L 152.79 99.71 L 152.49 102.66 L 151.65 105.36 L 150.31 107.83 L 148.54 109.97 L 146.47 111.68 L 144.10 113.00 L 141.51 113.85 L 138.68 114.21 L 138.29 114.21 L 121.19 114.21 L 118.25 113.92 L 115.55 113.07 L 113.08 111.74 L 110.94 109.97 L 109.23 107.90 L 107.91 105.53 L 107.05 102.94 L 106.70 100.11 L 106.69 99.71 L 106.69 87.25 L 106.89 86.27 L 107.43 85.48 L 108.13 84.99 L 108.99 84.76 L 109.20 84.75 L 112.83 84.75 L 112.83 79.22 L 113.25 76.00 L 114.26 73.06 L 115.80 70.38 L 117.80 68.05 L 120.20 66.13 L 122.95 64.68 L 125.96 63.77 L 129.23 63.45 Z M 132.08 92.91 L 126.05 92.94 L 125.87 92.97 L 124.98 93.38 L 124.32 94.08 L 124.00 94.89 L 123.98 95.92 L 123.98 95.92 L 125.75 103.38 L 125.81 103.62 L 126.18 104.42 L 126.71 105.10 L 127.49 105.69 L 128.42 106.05 L 129.83 106.10 L 131.10 105.62 L 132.08 104.75 L 132.75 103.42 L 132.75 103.42 L 134.57 95.62 L 134.58 95.43 L 134.38 94.44 L 133.85 93.64 L 133.06 93.11 L 132.08 92.91 L 132.08 92.91 Z M 129.23 63.49 L 125.99 63.81 L 123.01 64.71 L 120.28 66.14 L 117.89 68.04 L 115.88 70.35 L 114.34 73.03 L 113.33 75.97 L 112.90 79.17 L 112.90 79.17 L 112.90 84.75 L 118.97 84.75 L 118.97 79.23 L 118.99 78.89 L 119.32 77.02 L 119.97 75.29 L 120.92 73.73 L 122.12 72.36 L 123.62 71.18 L 125.33 70.29 L 127.19 69.73 L 129.22 69.53 L 131.24 69.73 L 133.11 70.29 L 134.82 71.18 L 136.32 72.36 L 137.57 73.79 L 138.55 75.44 L 139.19 77.25 L 139.49 79.23 L 139.49 79.23 L 139.49 84.75 L 145.56 84.75 L 145.55 79.17 L 145.53 78.75 L 145.05 75.67 L 144.03 72.85 L 142.51 70.27 L 140.57 68.04 L 138.18 66.14 L 135.45 64.71 L 132.47 63.81 L 129.23 63.49 Z M 129.22 69.58 L 127.23 69.77 L 125.40 70.31 L 123.71 71.18 L 122.23 72.33 L 120.97 73.75 L 120.00 75.38 L 119.34 77.18 L 119.04 79.15 L 119.04 79.15 L 119.03 84.75 L 139.43 84.75 L 139.40 79.15 L 139.37 78.81 L 139.03 76.95 L 138.37 75.24 L 137.42 73.68 L 136.21 72.33 L 134.73 71.18 L 133.04 70.31 L 131.21 69.77 L 129.22 69.58 Z" fill="#a3b1bf" fill-rule="nonzero" group-id="1,2,9" id="Combined-Shape" node-id="18" stroke="#a3b1bf" stroke-linecap="butt" stroke-width="3" target-height="50.766235" target-width="46.090904" target-x="106.6948" target-y="63.44805"></path><path d="M 43.32 100.81 L 43.32 100.84 L 43.20 101.42 L 42.89 101.90 L 42.41 102.22 L 41.83 102.34 L 41.82 102.34 L 39.29 102.33 L 39.30 104.86 L 39.18 105.45 L 38.86 105.93 L 38.39 106.25 L 37.80 106.37 L 37.79 106.37 L 37.76 106.37 L 37.18 106.25 L 36.71 105.93 L 36.39 105.46 L 36.27 104.87 L 36.26 102.33 L 33.72 102.32 L 33.13 102.20 L 32.66 101.88 L 32.34 101.41 L 32.22 100.82 L 32.22 100.80 L 32.34 100.21 L 32.66 99.74 L 33.13 99.41 L 33.72 99.29 L 33.73 99.29 L 36.25 99.30 L 36.25 96.77 L 36.37 96.18 L 36.69 95.71 L 37.16 95.39 L 37.75 95.27 L 37.75 95.27 L 37.78 95.27 L 38.37 95.39 L 38.84 95.71 L 39.16 96.18 L 39.28 96.76 L 39.28 99.31 L 41.83 99.31 L 42.41 99.43 L 42.88 99.75 L 43.20 100.22 L 43.32 100.81 Z" fill="#a3b1bf" fill-rule="nonzero" group-id="1,2" id="Combined-Shape-Copy-3" node-id="22" stroke-linecap="butt" stroke-width="0.99999994" target-height="11.101418" target-width="11.101418" target-x="32.221855" target-y="95.2659"></path><path d="M 225.39 89.73 L 225.39 89.76 L 225.27 90.35 L 224.95 90.82 L 224.48 91.14 L 223.89 91.26 L 223.89 91.26 L 221.36 91.26 L 221.36 93.79 L 221.25 94.38 L 220.93 94.85 L 220.45 95.17 L 219.87 95.29 L 219.86 95.29 L 219.83 95.29 L 219.25 95.17 L 218.78 94.85 L 218.46 94.38 L 218.34 93.79 L 218.33 91.25 L 215.79 91.24 L 215.20 91.12 L 214.73 90.81 L 214.41 90.33 L 214.29 89.75 L 214.29 89.72 L 214.41 89.13 L 214.73 88.66 L 215.20 88.34 L 215.79 88.22 L 215.79 88.22 L 218.32 88.22 L 218.32 85.69 L 218.44 85.10 L 218.75 84.63 L 219.23 84.31 L 219.81 84.19 L 219.82 84.19 L 219.85 84.19 L 220.43 84.31 L 220.91 84.63 L 221.22 85.10 L 221.35 85.69 L 221.35 88.23 L 223.89 88.24 L 224.48 88.36 L 224.95 88.67 L 225.27 89.15 L 225.39 89.73 Z" fill="#a3b1bf" fill-rule="nonzero" group-id="1,2" id="Combined-Shape-Copy-8" node-id="23" stroke-linecap="butt" stroke-width="0.99999994" target-height="11.101425" target-width="11.10141" target-x="214.2898" target-y="84.189514"></path><path d="M 78.96 60.11 L 80.98 61.90 L 77.77 64.81 L 78.37 66.35 L 78.59 68.08 L 78.34 69.91 L 77.70 71.47 L 76.67 72.83 L 75.33 73.89 L 73.80 74.55 L 72.02 74.81 L 70.24 74.55 L 68.71 73.89 L 67.38 72.83 L 66.35 71.47 L 65.71 69.91 L 65.45 68.08 L 65.71 66.25 L 66.35 64.68 L 67.38 63.32 L 68.71 62.26 L 70.24 61.61 L 72.02 61.35 L 73.51 61.53 L 74.84 61.99 L 76.04 62.75 L 78.96 60.11 Z M 72.02 64.45 L 70.64 64.74 L 69.52 65.52 L 68.77 66.65 L 68.49 68.08 L 68.77 69.50 L 69.52 70.64 L 70.64 71.41 L 72.02 71.70 L 73.41 71.41 L 74.52 70.64 L 75.28 69.50 L 75.56 68.08 L 75.28 66.65 L 74.52 65.52 L 73.41 64.74 L 72.02 64.45 Z M 83.22 43.22 L 87.61 47.61 L 85.46 49.75 L 87.47 51.76 L 90.55 48.94 L 92.34 50.52 L 83.41 58.68 L 81.62 57.10 L 85.98 53.12 L 84.04 51.18 L 81.89 53.32 L 77.50 48.93 L 79.64 46.79 L 81.84 48.98 L 83.27 47.56 L 81.07 45.36 L 83.22 43.22 Z" fill="#a3b1bf" fill-rule="nonzero" group-id="1,2" id="Combined-Shape" node-id="21" stroke-linecap="butt" stroke-width="1" target-height="31.589214" target-width="26.883118" target-x="65.454544" target-y="43.215977"></path><path d="M 164.55 0.00 L 143.77 18.33 L 164.81 24.55 L 164.81 16.76 L 153.37 16.08 L 164.81 12.27 Z" fill="#a3b1bf" fill-rule="nonzero" group-id="1,2" id="Path-10" node-id="25" stroke-linecap="butt" stroke-width="1" target-height="24.545454" target-width="21.038956" target-x="143.76624" target-y="0"></path><path d="M 194.86 124.48 L 194.67 125.82 L 194.20 126.97 L 193.42 127.97 L 192.42 128.74 L 191.27 129.22 L 189.94 129.41 L 188.60 129.22 L 187.45 128.74 L 186.45 127.97 L 185.68 126.97 L 185.20 125.82 L 185.01 124.48 L 185.20 123.14 L 185.68 121.99 L 186.45 121.00 L 187.45 120.22 L 188.60 119.74 L 189.94 119.55 L 191.27 119.74 L 192.42 120.22 L 193.42 121.00 L 194.20 121.99 L 194.67 123.14 L 194.86 124.48 Z" fill="none" group-id="1,2" id="Oval" node-id="26" stroke="#a3b1bf" stroke-linecap="butt" stroke-width="3" target-height="9.85714" target-width="9.857132" target-x="185.0065" target-y="119.55195"></path><path d="M 16.03 23.96 L 15.84 25.30 L 15.36 26.45 L 14.59 27.45 L 13.59 28.22 L 12.44 28.70 L 11.10 28.89 L 9.77 28.70 L 8.62 28.22 L 7.62 27.45 L 6.84 26.45 L 6.36 25.30 L 6.18 23.96 L 6.36 22.62 L 6.84 21.48 L 7.62 20.48 L 8.62 19.70 L 9.77 19.22 L 11.10 19.03 L 12.44 19.22 L 13.59 19.70 L 14.59 20.48 L 15.36 21.48 L 15.84 22.62 L 16.03 23.96 Z" fill="none" group-id="1,2" id="Oval-Copy-18" node-id="27" stroke="#a3b1bf" stroke-linecap="butt" stroke-width="3" target-height="9.857143" target-width="9.857142" target-x="6.1753244" target-y="19.032467"></path><path d="M 200.71 167.73 L 200.59 168.28 L 200.29 168.73 L 199.84 169.04 L 199.29 169.15 L 198.73 169.04 L 198.28 168.73 L 197.98 168.28 L 197.86 167.73 L 197.98 167.17 L 198.28 166.72 L 198.73 166.42 L 199.29 166.31 L 199.84 166.42 L 200.29 166.72 L 200.59 167.17 L 200.71 167.73 Z" fill="none" group-id="1,2" id="Oval-Copy-15" node-id="28" stroke="#a3b1bf" stroke-linecap="butt" stroke-width="3" target-height="2.844162" target-width="2.844162" target-x="197.86363" target-y="166.30519"></path><path d="M 106.03 25.13 L 105.92 25.69 L 105.62 26.14 L 105.17 26.44 L 104.61 26.55 L 104.05 26.44 L 103.60 26.14 L 103.30 25.69 L 103.19 25.13 L 103.30 24.57 L 103.60 24.12 L 104.05 23.82 L 104.61 23.71 L 105.17 23.82 L 105.62 24.12 L 105.92 24.57 L 106.03 25.13 Z" fill="none" group-id="1,2" id="Oval-Copy-16" node-id="29" stroke="#a3b1bf" stroke-linecap="butt" stroke-width="3" target-height="2.8441563" target-width="2.844162" target-x="103.18831" target-y="23.707792"></path><path d="M 7.50 136.50 L 7.26 137.68 L 6.62 138.62 L 5.68 139.26 L 4.50 139.50 L 3.32 139.26 L 2.38 138.62 L 1.74 137.68 L 1.50 136.50 L 1.74 135.32 L 2.38 134.38 L 3.32 133.74 L 4.50 133.50 L 5.68 133.74 L 6.62 134.38 L 7.26 135.32 L 7.50 136.50 Z" fill="none" group-id="1,2" id="Oval-Copy-14" node-id="30" stroke="#a3b1bf" stroke-linecap="butt" stroke-width="3" target-height="6" target-width="6" target-x="1.5" target-y="133.5"></path><path d="M 246.50 143.50 L 246.21 144.21 L 245.50 144.50 L 244.79 144.21 L 244.50 143.50 L 244.79 142.79 L 245.50 142.50 L 246.21 142.79 L 246.50 143.50 Z" fill="none" group-id="1,2" id="Oval-Copy-77" node-id="31" stroke="#a3b1bf" stroke-linecap="butt" stroke-width="3" target-height="2" target-width="2" target-x="244.5" target-y="142.5"></path><path d="M 170.42 17.15 L 170.00 17.10 L 166.63 16.32 L 165.99 16.04 L 165.53 15.56 L 165.28 14.94 L 165.29 14.24 L 165.57 13.60 L 166.05 13.14 L 166.67 12.89 L 167.37 12.89 L 170.83 13.69 L 171.47 13.99 L 171.92 14.48 L 172.15 15.11 L 172.12 15.81 L 171.88 16.36 L 171.49 16.78 L 170.99 17.05 L 170.42 17.15 M 180.47 20.22 L 179.84 20.11 L 176.62 18.96 L 176.01 18.62 L 175.60 18.09 L 175.42 17.45 L 175.50 16.75 L 175.85 16.14 L 176.37 15.74 L 177.01 15.55 L 177.71 15.63 L 181.10 16.83 L 181.69 17.21 L 182.07 17.76 L 182.22 18.41 L 182.10 19.10 L 181.45 19.93 L 180.47 20.22 M 189.74 25.12 L 189.19 25.03 L 188.68 24.76 L 185.93 22.96 L 185.41 22.49 L 185.12 21.90 L 185.07 21.23 L 185.29 20.56 L 185.76 20.04 L 186.36 19.75 L 187.02 19.70 L 187.69 19.92 L 190.79 21.96 L 191.26 22.49 L 191.47 23.12 L 191.44 23.79 L 191.14 24.42 L 190.50 24.94 L 189.74 25.12 M 195.55 33.57 L 194.95 33.46 L 194.43 33.16 L 194.04 32.71 L 193.83 32.12 L 193.46 30.72 L 192.85 29.35 L 192.65 28.68 L 192.72 28.02 L 193.03 27.43 L 193.57 26.98 L 194.24 26.78 L 194.90 26.84 L 195.49 27.15 L 195.94 27.69 L 196.77 29.57 L 197.28 31.51 L 197.26 32.21 L 196.99 32.82 L 196.51 33.28 L 195.86 33.54 L 195.55 33.57 M 193.15 43.54 L 192.26 43.30 L 191.74 42.82 L 191.46 42.22 L 191.42 41.55 L 191.65 40.89 L 193.07 38.02 L 193.46 37.43 L 194.01 37.06 L 194.66 36.91 L 195.35 37.03 L 195.94 37.41 L 196.31 37.96 L 196.46 38.61 L 196.34 39.30 L 195.61 40.95 L 194.66 42.69 L 194.00 43.32 L 193.15 43.54 M 186.49 51.63 L 185.82 51.50 L 185.23 51.09 L 184.85 50.50 L 184.73 49.85 L 184.87 49.19 L 185.27 48.61 L 187.64 46.18 L 188.20 45.77 L 188.85 45.61 L 189.51 45.71 L 190.11 46.07 L 190.53 46.63 L 190.68 47.28 L 190.59 47.94 L 190.23 48.54 L 187.71 51.14 L 187.13 51.51 L 186.49 51.63 M 178.44 58.40 L 177.68 58.22 L 177.04 57.69 L 176.74 57.06 L 176.71 56.39 L 176.93 55.76 L 177.39 55.24 L 180.12 53.13 L 180.74 52.81 L 181.41 52.75 L 182.04 52.95 L 182.58 53.40 L 182.90 54.02 L 182.96 54.68 L 182.76 55.32 L 182.31 55.86 L 179.50 58.05 L 178.98 58.31 L 178.44 58.40 M 169.78 64.36 L 168.95 64.15 L 168.30 63.55 L 168.05 62.89 L 168.07 62.23 L 168.33 61.61 L 168.84 61.13 L 171.74 59.23 L 172.39 58.96 L 173.06 58.97 L 173.67 59.22 L 174.17 59.71 L 174.44 60.36 L 174.43 61.03 L 174.18 61.65 L 173.69 62.14 L 170.72 64.08 L 169.78 64.36 M 73.76 106.88 L 72.80 106.59 L 72.14 105.79 L 72.01 105.10 L 72.15 104.45 L 72.52 103.89 L 73.10 103.50 L 76.38 102.19 L 77.07 102.07 L 77.72 102.21 L 78.27 102.59 L 78.65 103.18 L 78.77 103.87 L 78.63 104.52 L 78.25 105.07 L 77.66 105.45 L 74.43 106.75 L 73.76 106.88 M 64.14 111.11 L 63.22 110.85 L 62.55 110.11 L 62.38 109.43 L 62.48 108.77 L 62.82 108.20 L 63.38 107.77 L 66.60 106.29 L 67.28 106.13 L 67.94 106.25 L 68.51 106.60 L 68.92 107.17 L 69.07 107.85 L 68.96 108.51 L 68.61 109.08 L 68.04 109.49 L 64.89 110.94 L 64.14 111.11 M 54.83 116.00 L 53.97 115.77 L 53.31 115.13 L 53.08 114.46 L 53.13 113.80 L 53.41 113.20 L 53.94 112.73 L 57.04 110.98 L 57.72 110.78 L 58.38 110.84 L 58.97 111.15 L 59.42 111.69 L 59.62 112.36 L 59.56 113.02 L 59.25 113.61 L 58.71 114.06 L 55.71 115.75 L 54.83 116.00 M 46.16 121.94 L 45.43 121.78 L 44.81 121.31 L 44.48 120.69 L 44.42 120.02 L 44.60 119.38 L 45.04 118.84 L 47.91 116.62 L 48.55 116.33 L 49.22 116.32 L 49.84 116.54 L 50.36 117.02 L 50.65 117.66 L 50.67 118.33 L 50.44 118.95 L 49.96 119.47 L 47.28 121.54 L 46.74 121.84 L 46.16 121.94 M 39.35 129.86 L 38.56 129.66 L 38.01 129.23 L 37.69 128.64 L 37.60 127.98 L 37.79 127.30 L 38.70 125.72 L 39.86 124.09 L 40.39 123.63 L 41.02 123.42 L 41.68 123.46 L 42.31 123.77 L 42.77 124.30 L 42.98 124.93 L 42.94 125.60 L 42.63 126.23 L 40.92 128.90 L 40.25 129.61 L 39.35 129.86 M 38.89 139.98 L 37.94 139.70 L 37.28 138.91 L 36.61 136.98 L 36.24 135.05 L 36.31 134.35 L 36.62 133.76 L 37.13 133.33 L 37.80 133.12 L 38.49 133.18 L 39.08 133.49 L 39.52 134.00 L 39.73 134.67 L 40.00 136.08 L 40.50 137.54 L 40.64 138.22 L 40.52 138.88 L 40.16 139.44 L 39.58 139.84 L 38.89 139.98 M 45.49 148.03 L 44.92 147.93 L 44.38 147.63 L 41.65 145.15 L 41.27 144.56 L 41.15 143.91 L 41.28 143.25 L 41.67 142.67 L 42.26 142.29 L 42.91 142.17 L 43.57 142.30 L 44.15 142.69 L 46.61 144.92 L 47.05 145.46 L 47.24 146.10 L 47.18 146.77 L 46.85 147.39 L 46.22 147.87 L 45.49 148.03 M 54.25 153.82 L 53.41 153.60 L 50.31 151.80 L 49.79 151.32 L 49.52 150.71 L 49.49 150.05 L 49.73 149.39 L 50.21 148.87 L 50.82 148.60 L 51.48 148.57 L 52.14 148.81 L 55.10 150.53 L 55.64 150.98 L 55.94 151.58 L 56.00 152.24 L 55.79 152.91 L 55.13 153.58 L 54.25 153.82 M 63.71 158.42 L 63.01 158.27 L 59.77 156.81 L 59.21 156.40 L 58.87 155.83 L 58.76 155.17 L 58.92 154.48 L 59.34 153.92 L 59.91 153.58 L 60.57 153.47 L 61.25 153.63 L 64.41 155.05 L 64.98 155.46 L 65.34 156.02 L 65.46 156.67 L 65.32 157.36 L 64.66 158.14 L 63.71 158.42 M 73.48 162.31 L 72.88 162.20 L 69.57 160.95 L 68.98 160.57 L 68.60 160.03 L 68.45 159.38 L 68.57 158.69 L 68.94 158.09 L 69.49 157.71 L 70.14 157.57 L 70.83 157.68 L 74.09 158.91 L 74.68 159.27 L 75.07 159.81 L 75.23 160.46 L 75.13 161.16 L 74.47 162.00 L 73.48 162.31" fill="#a0aebb" fill-rule="evenodd" group-id="1,2" id="Fill-1" node-id="32" stroke-linecap="butt" stroke-width="1" target-height="149.41566" target-width="161.03339" target-x="36.244526" target-y="12.88973"></path></g></g></svg>