<?xml version="1.0" standalone="no"?><!DOCTYPE svg PUBLIC "-//W3C//DTD SVG 1.1//EN" "http://www.w3.org/Graphics/SVG/1.1/DTD/svg11.dtd"><svg height="146" legacy-metrics="false" node-id="1" sillyvg="true" template-height="146" template-width="262" version="1.1" viewBox="0 0 262 146" width="262" xmlns="http://www.w3.org/2000/svg" xmlns:xlink="http://www.w3.org/1999/xlink"><defs node-id="59"></defs><g node-id="68"><g node-id="69"><g node-id="70"><g node-id="74"><path d="M 186.00 138.50 L 185.71 139.38 L 184.74 140.33 L 182.70 141.42 L 179.12 142.61 L 173.70 143.80 L 167.71 144.69 L 160.35 145.41 L 152.61 145.84 L 144.00 146.00 L 135.39 145.84 L 127.65 145.41 L 120.29 144.69 L 114.30 143.80 L 108.88 142.61 L 105.30 141.42 L 103.26 140.33 L 102.29 139.38 L 102.00 138.50 L 102.29 137.62 L 103.26 136.67 L 105.30 135.58 L 108.88 134.39 L 114.30 133.20 L 120.29 132.31 L 127.65 131.59 L 135.39 131.16 L 144.00 131.00 L 152.61 131.16 L 160.35 131.59 L 167.71 132.31 L 173.70 133.20 L 179.12 134.39 L 182.70 135.58 L 184.74 136.67 L 185.71 137.62 L 186.00 138.50 Z" fill="#a3b1bf" fill-opacity="0.24851656" fill-rule="nonzero" group-id="1,2,3,7" node-id="66" stroke-linecap="butt" stroke-opacity="0.24851656" stroke-width="1" target-height="15" target-width="84" target-x="102" target-y="131"></path></g></g><g node-id="71"><path d="M 84.00 33.00 L 84.00 42.87 L 82.77 42.71 L 60.93 42.71 L 59.61 42.53 L 58.47 42.06 L 57.48 41.29 L 56.71 40.31 L 56.24 39.18 L 56.05 37.86 L 56.24 36.54 L 56.71 35.41 L 57.48 34.42 L 58.47 33.66 L 59.61 33.19 L 60.93 33.00 L 84.00 33.00 Z M 84.00 52.27 L 84.00 71.47 L 84.34 75.87 L 85.26 80.04 L 86.75 84.02 L 88.73 87.81 L 91.10 91.41 L 93.88 94.86 L 95.20 97.98 L 96.83 101.00 L 80.48 101.00 L 79.15 100.81 L 78.01 100.34 L 77.02 99.58 L 76.25 98.59 L 75.78 97.46 L 75.59 96.14 L 75.78 94.82 L 76.25 93.69 L 77.02 92.71 L 78.01 91.94 L 79.15 91.47 L 80.48 91.29 L 82.11 91.29 L 83.43 91.10 L 84.57 90.63 L 85.56 89.86 L 86.33 88.88 L 86.80 87.75 L 86.99 86.43 L 86.80 85.11 L 86.33 83.98 L 85.56 82.99 L 84.57 82.23 L 83.43 81.76 L 82.11 81.57 L 44.89 81.57 L 43.56 81.38 L 42.42 80.91 L 41.43 80.15 L 40.66 79.16 L 40.19 78.03 L 40.00 76.71 L 40.19 75.40 L 40.66 74.27 L 41.43 73.28 L 42.42 72.52 L 43.56 72.04 L 44.89 71.86 L 73.86 71.86 L 75.19 71.67 L 76.33 71.20 L 77.32 70.43 L 78.08 69.45 L 78.56 68.32 L 78.75 67.00 L 78.56 65.68 L 78.08 64.55 L 77.32 63.57 L 76.33 62.80 L 75.19 62.33 L 73.86 62.14 L 69.64 62.14 L 68.31 61.96 L 67.17 61.48 L 66.18 60.72 L 65.41 59.73 L 64.94 58.60 L 64.75 57.29 L 64.94 55.97 L 65.41 54.84 L 66.18 53.85 L 67.17 53.09 L 68.31 52.62 L 69.64 52.43 L 82.77 52.43 L 84.00 52.27 Z M 194.00 33.00 L 198.83 33.00 L 200.15 33.19 L 201.29 33.66 L 202.28 34.42 L 203.05 35.41 L 203.53 36.54 L 203.71 37.86 L 203.53 39.18 L 203.05 40.31 L 202.28 41.29 L 201.29 42.06 L 200.15 42.53 L 198.83 42.71 L 194.00 42.71 L 194.00 33.00 Z M 194.00 52.43 L 211.86 52.43 L 213.18 52.62 L 214.32 53.09 L 215.31 53.85 L 216.08 54.84 L 216.56 55.97 L 216.74 57.29 L 216.56 58.60 L 216.08 59.73 L 215.31 60.72 L 214.32 61.48 L 213.18 61.96 L 211.86 62.14 L 194.00 62.14 L 194.00 52.43 Z M 193.20 91.29 L 215.11 91.29 L 216.44 91.47 L 217.58 91.94 L 218.57 92.71 L 219.34 93.69 L 219.81 94.82 L 220.00 96.14 L 219.81 97.46 L 219.34 98.59 L 218.57 99.58 L 217.58 100.34 L 216.44 100.81 L 215.11 101.00 L 189.17 101.00 L 190.85 97.88 L 192.19 94.65 L 193.20 91.29 Z M 197.75 71.00 L 225.25 71.00 L 226.24 71.18 L 227.12 71.66 L 227.90 72.46 L 228.69 74.01 L 229.00 76.00 L 228.69 77.99 L 227.90 79.54 L 227.12 80.34 L 226.24 80.82 L 225.25 81.00 L 197.75 81.00 L 196.76 80.82 L 195.88 80.34 L 195.10 79.54 L 194.31 77.99 L 194.00 76.00 L 194.31 74.01 L 195.10 72.46 L 195.88 71.66 L 196.76 71.18 L 197.75 71.00 Z" fill="#a3b1bf" fill-opacity="0.14969309" fill-rule="nonzero" group-id="1,2,4" id="Shape" node-id="40" stroke-linecap="butt" stroke-opacity="0.14969309" stroke-width="1" target-height="68" target-width="189" target-x="40" target-y="33"></path></g><g node-id="72"><path d="M 167.66 85.83 L 159.20 94.23 L 143.46 78.62 L 127.72 94.23 L 119.26 85.83 L 135.00 70.23 L 119.26 54.62 L 127.72 46.23 L 143.46 61.83 L 159.20 46.23 L 167.66 54.62 L 151.93 70.23 Z" fill="#a3b1bf" fill-rule="nonzero" group-id="1,2,5" id="Fill-1" node-id="42" stroke-linecap="butt" stroke-width="1" target-height="48.000004" target-width="48.402992" target-x="119.2611" target-y="46.2255"></path><g node-id="75"><path d="M 159.20 42.00 L 143.46 57.61 L 127.72 42.00 L 115.00 54.62 L 130.74 70.23 L 115.00 85.83 L 127.72 98.45 L 143.46 82.84 L 159.20 98.45 L 171.92 85.83 L 156.19 70.23 L 171.92 54.62 L 159.20 42.00 Z M 159.20 46.23 L 167.66 54.62 L 151.92 70.23 L 167.66 85.83 L 159.20 94.22 L 143.46 78.62 L 127.72 94.22 L 119.26 85.83 L 135.00 70.23 L 119.26 54.62 L 127.72 46.23 L 143.46 61.83 L 159.20 46.23 Z" fill="#a3b1bf" fill-opacity="0.25297618" fill-rule="nonzero" group-id="1,2,5,8" id="Fill-2" node-id="43" stroke-linecap="butt" stroke-opacity="0.25297618" stroke-width="1" target-height="56.45" target-width="56.924995" target-x="114.9997" target-y="42.0004"></path></g><path d="M 143.00 13.00 L 194.00 31.34 L 194.00 84.47 L 193.65 88.93 L 192.71 93.15 L 191.17 97.17 L 189.15 101.00 L 186.73 104.65 L 183.89 108.12 L 180.77 111.37 L 177.45 114.41 L 173.93 117.24 L 168.44 121.13 L 163.07 124.46 L 157.73 127.41 L 153.11 129.71 L 145.83 132.92 L 143.00 134.00 L 140.17 132.92 L 132.89 129.71 L 128.27 127.41 L 122.93 124.46 L 117.56 121.13 L 112.07 117.24 L 108.55 114.41 L 105.23 111.37 L 102.11 108.12 L 99.27 104.65 L 96.85 101.00 L 94.83 97.17 L 93.29 93.15 L 92.35 88.93 L 92.00 84.47 L 92.00 84.47 L 92.00 31.34 L 143.00 13.00 Z M 143.00 16.19 L 95.00 33.45 L 95.00 84.47 L 95.23 87.79 L 95.82 90.98 L 96.76 94.05 L 98.07 97.02 L 100.25 100.79 L 102.85 104.38 L 105.90 107.80 L 110.94 112.48 L 116.39 116.68 L 122.07 120.43 L 127.46 123.56 L 132.75 126.29 L 137.03 128.30 L 143.00 130.80 L 148.97 128.31 L 153.26 126.30 L 158.54 123.57 L 163.94 120.44 L 169.61 116.70 L 175.06 112.50 L 180.10 107.81 L 183.15 104.39 L 185.75 100.80 L 187.93 97.03 L 189.24 94.06 L 190.18 90.99 L 190.77 87.80 L 191.00 84.47 L 191.00 84.47 L 191.00 33.45 L 143.00 16.19 Z" fill="#a3b1bf" fill-rule="nonzero" group-id="1,2,5" id="Combined-Shape" node-id="44" stroke-linecap="butt" stroke-width="1" target-height="121" target-width="102" target-x="92" target-y="13"></path><path d="M 143.00 16.19 L 191.00 33.45 L 191.00 84.47 L 190.77 87.80 L 190.18 90.99 L 189.24 94.06 L 187.93 97.03 L 185.75 100.80 L 183.15 104.39 L 180.10 107.81 L 175.06 112.50 L 169.61 116.70 L 163.94 120.44 L 158.54 123.57 L 153.26 126.30 L 148.97 128.31 L 143.00 130.80 L 137.03 128.30 L 132.75 126.29 L 127.46 123.56 L 122.07 120.43 L 116.39 116.68 L 110.94 112.48 L 105.90 107.80 L 102.85 104.38 L 100.25 100.79 L 98.07 97.02 L 96.76 94.05 L 95.82 90.98 L 95.23 87.79 L 95.00 84.47 L 95.00 33.45 L 143.00 16.19 Z M 143.00 19.38 L 98.00 35.56 L 98.00 84.47 L 98.34 88.38 L 99.27 92.11 L 100.78 95.70 L 102.75 99.11 L 105.11 102.37 L 107.89 105.51 L 112.49 109.83 L 117.50 113.74 L 122.74 117.27 L 127.78 120.26 L 132.75 122.91 L 136.89 124.92 L 143.00 127.58 L 149.11 124.93 L 153.25 122.92 L 158.22 120.28 L 163.26 117.28 L 168.50 113.76 L 173.51 109.84 L 178.11 105.53 L 180.89 102.39 L 183.25 99.12 L 185.22 95.72 L 186.73 92.12 L 187.66 88.38 L 188.00 84.47 L 188.00 84.47 L 188.00 35.56 L 143.00 19.38 Z" fill="#a3b1bf" fill-opacity="0.2476981" fill-rule="nonzero" group-id="1,2,5,9" id="Combined-Shape" node-id="45" stroke-linecap="butt" stroke-opacity="0.2476981" stroke-width="1" target-height="114.611" target-width="96" target-x="95" target-y="16.1878"></path><path d="M 135.00 0.00 L 186.00 18.34 L 186.00 28.46 L 183.00 27.38 L 183.00 20.45 L 135.00 3.19 L 87.00 20.45 L 87.00 71.47 L 87.17 74.41 L 87.63 77.23 L 88.40 79.97 L 90.02 83.92 L 92.18 87.70 L 92.82 91.36 L 93.88 94.86 L 91.19 91.54 L 88.89 88.07 L 86.94 84.43 L 85.44 80.62 L 84.47 76.62 L 84.02 72.42 L 84.00 71.47 L 84.00 18.34 L 135.00 0.00 Z" fill="#a3b1bf" fill-rule="nonzero" group-id="1,2,5" id="Combined-Shape" node-id="46" stroke-linecap="butt" stroke-width="1" target-height="94.859436" target-width="102" target-x="84" target-y="0"></path><path d="M 135.00 3.19 L 183.00 20.45 L 183.00 27.38 L 143.00 13.00 L 92.00 31.34 L 92.00 84.47 L 92.18 87.70 L 90.02 83.92 L 88.40 79.97 L 87.63 77.23 L 87.17 74.41 L 87.00 71.47 L 87.00 20.45 L 135.00 3.19 Z" fill="#a3b1bf" fill-opacity="0.14980933" fill-rule="nonzero" group-id="1,2,5,10" id="Combined-Shape" node-id="47" stroke-linecap="butt" stroke-opacity="0.14980933" stroke-width="1" target-height="84.51438" target-width="96" target-x="87" target-y="3.1878"></path></g><path d="M 231.50 83.00 L 231.29 84.49 L 230.75 85.77 L 229.89 86.89 L 228.77 87.75 L 227.49 88.29 L 226.00 88.50 L 224.51 88.29 L 223.23 87.75 L 222.11 86.89 L 221.25 85.77 L 220.71 84.49 L 220.50 83.00 L 220.71 81.51 L 221.25 80.23 L 222.11 79.11 L 223.23 78.25 L 224.51 77.71 L 226.00 77.50 L 227.49 77.71 L 228.77 78.25 L 229.89 79.11 L 230.75 80.23 L 231.29 81.51 L 231.50 83.00 Z" fill="none" group-id="1,2" id="Oval" node-id="48" stroke="#a3b1bf" stroke-linecap="butt" stroke-width="3" target-height="11" target-width="11" target-x="220.5" target-y="77.5"></path><path d="M 66.50 24.00 L 66.29 25.49 L 65.75 26.77 L 64.89 27.89 L 63.77 28.75 L 62.49 29.29 L 61.00 29.50 L 59.51 29.29 L 58.23 28.75 L 57.11 27.89 L 56.25 26.77 L 55.71 25.49 L 55.50 24.00 L 55.71 22.51 L 56.25 21.23 L 57.11 20.11 L 58.23 19.25 L 59.51 18.71 L 61.00 18.50 L 62.49 18.71 L 63.77 19.25 L 64.89 20.11 L 65.75 21.23 L 66.29 22.51 L 66.50 24.00 Z" fill="none" group-id="1,2" id="Oval-Copy-9" node-id="49" stroke="#a3b1bf" stroke-linecap="butt" stroke-width="3" target-height="11" target-width="11" target-x="55.5" target-y="18.5"></path><path d="M 75.50 138.50 L 75.26 139.68 L 74.62 140.62 L 73.68 141.26 L 72.50 141.50 L 71.32 141.26 L 70.38 140.62 L 69.74 139.68 L 69.50 138.50 L 69.74 137.32 L 70.38 136.38 L 71.32 135.74 L 72.50 135.50 L 73.68 135.74 L 74.62 136.38 L 75.26 137.32 L 75.50 138.50 Z" fill="none" group-id="1,2" id="Oval-Copy-12" node-id="50" stroke="#a3b1bf" stroke-linecap="butt" stroke-width="3" target-height="6" target-width="6" target-x="69.5" target-y="135.5"></path><path d="M 227.50 137.00 L 227.38 137.59 L 227.06 138.06 L 226.59 138.38 L 226.00 138.50 L 225.41 138.38 L 224.94 138.06 L 224.62 137.59 L 224.50 137.00 L 224.62 136.41 L 224.94 135.94 L 225.41 135.62 L 226.00 135.50 L 226.59 135.62 L 227.06 135.94 L 227.38 136.41 L 227.50 137.00 Z" fill="none" group-id="1,2" id="Oval-Copy-8" node-id="51" stroke="#a3b1bf" stroke-linecap="butt" stroke-width="3" target-height="3" target-width="3" target-x="224.5" target-y="135.5"></path><path d="M 62.50 101.00 L 62.38 101.59 L 62.06 102.06 L 61.59 102.38 L 61.00 102.50 L 60.41 102.38 L 59.94 102.06 L 59.62 101.59 L 59.50 101.00 L 59.62 100.41 L 59.94 99.94 L 60.41 99.62 L 61.00 99.50 L 61.59 99.62 L 62.06 99.94 L 62.38 100.41 L 62.50 101.00 Z" fill="none" group-id="1,2" id="Oval-Copy-11" node-id="52" stroke="#a3b1bf" stroke-linecap="butt" stroke-width="3" target-height="3" target-width="3" target-x="59.5" target-y="99.5"></path><path d="M 214.50 7.00 L 215.09 7.12 L 215.56 7.44 L 215.88 7.91 L 216.00 8.50 L 216.00 12.00 L 219.50 12.00 L 220.09 12.12 L 220.56 12.44 L 220.88 12.91 L 221.00 13.50 L 220.88 14.09 L 220.56 14.56 L 220.09 14.88 L 219.50 15.00 L 216.00 15.00 L 216.00 18.50 L 215.88 19.09 L 215.56 19.56 L 215.09 19.88 L 214.50 20.00 L 213.91 19.88 L 213.44 19.56 L 213.12 19.09 L 213.00 18.50 L 213.00 15.00 L 209.50 15.00 L 208.91 14.88 L 208.44 14.56 L 208.12 14.09 L 208.00 13.50 L 208.12 12.91 L 208.44 12.44 L 208.91 12.12 L 209.50 12.00 L 213.00 12.00 L 213.00 8.50 L 213.12 7.91 L 213.44 7.44 L 213.91 7.12 L 214.50 7.00 Z" fill="#a3b1bf" fill-rule="nonzero" group-id="1,2" id="Combined-Shape" node-id="53" stroke-linecap="butt" stroke-width="1" target-height="13" target-width="13" target-x="208" target-y="7"></path><path d="M 255.50 108.00 L 256.09 108.12 L 256.56 108.44 L 256.88 108.91 L 257.00 109.50 L 257.00 113.00 L 260.50 113.00 L 261.09 113.12 L 261.56 113.44 L 261.88 113.91 L 262.00 114.50 L 261.88 115.09 L 261.56 115.56 L 261.09 115.88 L 260.50 116.00 L 257.00 116.00 L 257.00 119.50 L 256.88 120.09 L 256.56 120.56 L 256.09 120.88 L 255.50 121.00 L 254.91 120.88 L 254.44 120.56 L 254.12 120.09 L 254.00 119.50 L 254.00 116.00 L 250.50 116.00 L 249.91 115.88 L 249.44 115.56 L 249.12 115.09 L 249.00 114.50 L 249.12 113.91 L 249.44 113.44 L 249.91 113.12 L 250.50 113.00 L 254.00 113.00 L 254.00 109.50 L 254.12 108.91 L 254.44 108.44 L 254.91 108.12 L 255.50 108.00 Z" fill="#a3b1bf" fill-rule="nonzero" group-id="1,2" id="Combined-Shape-Copy-6" node-id="54" stroke-linecap="butt" stroke-width="1" target-height="13" target-width="13" target-x="249" target-y="108"></path><path d="M 11.83 56.33 L 11.71 56.92 L 11.39 57.39 L 10.92 57.71 L 10.33 57.83 L 7.83 57.83 L 7.83 60.33 L 7.71 60.92 L 7.39 61.39 L 6.92 61.71 L 6.33 61.83 L 5.74 61.71 L 5.27 61.39 L 4.95 60.92 L 4.83 60.33 L 4.83 57.83 L 2.33 57.83 L 1.74 57.71 L 1.27 57.39 L 0.95 56.92 L 0.83 56.33 L 0.95 55.74 L 1.27 55.27 L 1.74 54.95 L 2.33 54.83 L 4.83 54.83 L 4.83 52.33 L 4.95 51.74 L 5.27 51.27 L 5.74 50.95 L 6.33 50.83 L 6.92 50.95 L 7.39 51.27 L 7.71 51.74 L 7.83 52.33 L 7.83 54.83 L 10.33 54.83 L 10.92 54.95 L 11.39 55.27 L 11.71 55.74 L 11.83 56.33 Z" fill="#a3b1bf" fill-rule="nonzero" group-id="1,2" id="Combined-Shape-Copy-3" node-id="55" stroke-linecap="butt" stroke-width="0.99999994" target-height="11" target-width="11" target-x="0.82842636" target-y="50.828423"></path><path d="M 224.15 21.99 L 223.65 21.90 L 220.83 20.92 L 220.31 20.61 L 219.97 20.16 L 219.82 19.61 L 219.90 19.01 L 220.21 18.49 L 220.66 18.15 L 221.21 18.00 L 221.81 18.08 L 224.65 19.08 L 225.17 19.39 L 225.51 19.85 L 225.65 20.40 L 225.56 20.99 L 225.00 21.72 L 224.15 21.99 M 232.55 25.22 L 231.98 25.10 L 229.22 23.99 L 228.72 23.66 L 228.39 23.19 L 228.27 22.64 L 228.37 22.04 L 228.70 21.54 L 229.17 21.22 L 229.73 21.09 L 230.32 21.20 L 233.13 22.33 L 233.62 22.67 L 233.94 23.14 L 234.05 23.70 L 233.94 24.29 L 233.37 24.97 L 232.55 25.22 M 240.72 28.98 L 240.03 28.81 L 237.39 27.50 L 236.91 27.14 L 236.62 26.65 L 236.54 26.08 L 236.68 25.50 L 237.04 25.02 L 237.53 24.73 L 238.10 24.64 L 238.68 24.79 L 241.42 26.15 L 241.88 26.52 L 242.15 27.02 L 242.22 27.59 L 242.06 28.17 L 241.49 28.77 L 240.72 28.98 M 248.34 33.74 L 247.86 33.66 L 247.41 33.41 L 245.08 31.74 L 244.66 31.31 L 244.44 30.78 L 244.43 30.21 L 244.66 29.66 L 245.08 29.23 L 245.61 29.01 L 246.18 29.01 L 246.74 29.23 L 249.27 31.06 L 249.66 31.52 L 249.83 32.07 L 249.79 32.64 L 249.52 33.17 L 248.98 33.60 L 248.34 33.74 M 253.35 40.92 L 252.81 40.82 L 252.35 40.54 L 252.02 40.11 L 251.86 39.57 L 251.63 38.52 L 251.09 37.36 L 250.90 36.80 L 250.94 36.23 L 251.19 35.71 L 251.64 35.31 L 252.21 35.12 L 252.78 35.16 L 253.29 35.41 L 253.69 35.86 L 254.48 37.59 L 254.85 39.27 L 254.79 39.87 L 254.52 40.37 L 254.08 40.74 L 253.51 40.91 L 253.35 40.92 M 248.88 48.16 L 248.21 48.01 L 247.66 47.54 L 247.41 46.99 L 247.40 46.42 L 247.59 45.88 L 248.00 45.44 L 250.07 43.69 L 250.57 43.35 L 251.13 43.23 L 251.69 43.33 L 252.19 43.65 L 252.53 44.15 L 252.65 44.70 L 252.55 45.27 L 252.23 45.77 L 251.12 46.81 L 249.75 47.88 L 248.88 48.16 M 240.93 52.33 L 240.11 52.09 L 239.54 51.40 L 239.43 50.81 L 239.55 50.25 L 239.86 49.78 L 240.36 49.44 L 243.04 48.27 L 243.62 48.13 L 244.18 48.22 L 244.67 48.51 L 245.03 48.99 L 245.18 49.57 L 245.09 50.13 L 244.80 50.63 L 244.31 50.98 L 241.50 52.22 L 240.93 52.33 M 232.44 55.30 L 231.56 55.01 L 231.00 54.24 L 230.95 53.64 L 231.12 53.09 L 231.48 52.65 L 232.00 52.37 L 234.83 51.47 L 235.43 51.40 L 235.97 51.55 L 236.43 51.90 L 236.72 52.42 L 236.80 53.02 L 236.64 53.57 L 236.29 54.02 L 235.77 54.32 L 232.88 55.24 L 232.44 55.30 M 223.76 57.68 L 222.84 57.36 L 222.51 57.01 L 222.30 56.54 L 222.28 55.94 L 222.48 55.40 L 222.86 54.98 L 223.40 54.72 L 226.29 53.98 L 226.88 53.95 L 227.42 54.14 L 227.85 54.51 L 228.12 55.05 L 228.15 55.65 L 227.96 56.19 L 227.59 56.62 L 227.05 56.88 L 224.12 57.63 L 223.76 57.68 M 214.99 59.68 L 214.48 59.59 L 214.05 59.35 L 213.72 58.97 L 213.52 58.49 L 213.52 57.89 L 213.73 57.36 L 214.13 56.95 L 214.68 56.71 L 217.59 56.08 L 218.20 56.06 L 218.73 56.27 L 219.14 56.67 L 219.38 57.22 L 219.39 57.82 L 219.19 58.35 L 218.79 58.76 L 218.25 59.01 L 215.30 59.64 L 214.99 59.68 M 206.16 61.42 L 205.64 61.33 L 205.21 61.08 L 204.87 60.69 L 204.68 60.19 L 204.70 59.59 L 204.92 59.07 L 205.33 58.67 L 205.89 58.44 L 208.82 57.89 L 209.42 57.90 L 209.94 58.12 L 210.35 58.52 L 210.58 59.08 L 210.57 59.68 L 210.35 60.20 L 209.95 60.61 L 209.39 60.84 L 206.43 61.39 L 206.16 61.42 M 197.29 62.97 L 196.77 62.88 L 196.33 62.62 L 196.00 62.23 L 195.81 61.72 L 195.84 61.12 L 196.07 60.60 L 196.49 60.21 L 197.05 59.99 L 200.00 59.49 L 200.60 59.51 L 201.12 59.75 L 201.51 60.16 L 201.73 60.72 L 201.71 61.32 L 201.48 61.84 L 201.07 62.23 L 200.51 62.45 L 197.54 62.95 L 197.29 62.97 M 81.26 77.75 L 80.74 77.66 L 80.30 77.40 L 79.97 77.01 L 79.78 76.51 L 79.80 75.91 L 80.03 75.39 L 80.44 74.99 L 81.00 74.77 L 83.96 74.26 L 84.56 74.28 L 85.08 74.51 L 85.48 74.93 L 85.69 75.48 L 85.67 76.08 L 85.44 76.60 L 85.03 77.00 L 84.47 77.22 L 81.52 77.73 L 81.26 77.75 M 72.41 79.42 L 71.91 79.33 L 71.47 79.09 L 71.14 78.71 L 70.94 78.22 L 70.95 77.62 L 71.17 77.09 L 71.57 76.69 L 72.12 76.45 L 75.07 75.87 L 75.67 75.87 L 76.20 76.10 L 76.60 76.50 L 76.83 77.05 L 76.83 77.66 L 76.60 78.18 L 76.20 78.58 L 75.64 78.81 L 72.71 79.39 L 72.41 79.42 M 63.62 81.34 L 63.13 81.26 L 62.70 81.02 L 62.37 80.66 L 62.16 80.19 L 62.15 79.59 L 62.35 79.05 L 62.74 78.63 L 63.28 78.38 L 66.22 77.71 L 66.83 77.70 L 67.35 77.90 L 67.77 78.30 L 68.01 78.84 L 68.02 79.44 L 67.81 79.97 L 67.42 80.39 L 66.88 80.64 L 63.97 81.30 L 63.62 81.34 M 54.91 83.58 L 54.01 83.28 L 53.47 82.49 L 53.42 81.89 L 53.60 81.35 L 53.97 80.91 L 54.50 80.64 L 57.42 79.84 L 58.02 79.81 L 58.56 80.00 L 58.99 80.37 L 59.25 80.91 L 59.29 81.51 L 59.10 82.05 L 58.73 82.48 L 58.19 82.74 L 55.32 83.53 L 54.91 83.58 M 46.32 86.27 L 45.47 86.00 L 44.91 85.27 L 44.83 84.67 L 44.97 84.12 L 45.31 83.66 L 45.83 83.36 L 48.70 82.39 L 49.30 82.32 L 49.85 82.48 L 50.30 82.83 L 50.59 83.35 L 50.66 83.95 L 50.50 84.50 L 50.15 84.95 L 49.63 85.24 L 46.82 86.19 L 46.32 86.27 M 37.98 89.64 L 37.19 89.41 L 36.63 88.77 L 36.48 88.19 L 36.57 87.63 L 36.86 87.14 L 37.35 86.78 L 40.14 85.54 L 40.73 85.42 L 41.29 85.53 L 41.77 85.84 L 42.11 86.34 L 42.22 86.92 L 42.11 87.48 L 41.80 87.96 L 41.31 88.30 L 38.62 89.49 L 37.98 89.64 M 30.23 94.15 L 29.57 94.00 L 29.03 93.55 L 28.77 93.01 L 28.74 92.44 L 28.93 91.90 L 29.33 91.45 L 31.91 89.69 L 32.48 89.49 L 33.05 89.51 L 33.57 89.74 L 33.98 90.18 L 34.19 90.74 L 34.16 91.31 L 33.93 91.83 L 33.49 92.24 L 31.13 93.85 L 30.23 94.15 M 24.43 100.86 L 23.84 100.74 L 23.35 100.40 L 23.04 99.92 L 22.94 99.36 L 23.06 98.77 L 23.78 97.34 L 24.74 95.90 L 25.19 95.50 L 25.73 95.31 L 26.30 95.34 L 26.84 95.59 L 27.24 96.04 L 27.43 96.58 L 27.40 97.15 L 27.14 97.69 L 25.81 99.96 L 25.25 100.63 L 24.43 100.86 M 24.70 109.55 L 23.89 109.32 L 23.33 108.67 L 22.71 107.05 L 22.31 105.49 L 22.32 104.89 L 22.55 104.36 L 22.96 103.96 L 23.51 103.73 L 24.11 103.74 L 24.64 103.97 L 25.04 104.38 L 25.26 104.93 L 25.57 106.15 L 26.07 107.44 L 26.20 108.03 L 26.10 108.59 L 25.80 109.08 L 25.31 109.43 L 24.70 109.55 M 30.00 116.75 L 29.44 116.65 L 28.94 116.32 L 26.82 114.03 L 26.53 113.50 L 26.47 112.94 L 26.62 112.39 L 26.99 111.91 L 27.52 111.62 L 28.08 111.56 L 28.63 111.72 L 29.10 112.09 L 31.06 114.19 L 31.39 114.69 L 31.50 115.25 L 31.40 115.81 L 31.07 116.31 L 30.56 116.64 L 30.00 116.75 M 36.91 122.51 L 36.03 122.22 L 33.58 120.38 L 33.20 119.92 L 33.02 119.38 L 33.06 118.81 L 33.33 118.28 L 33.79 117.89 L 34.33 117.71 L 34.90 117.75 L 35.44 118.02 L 37.79 119.79 L 38.19 120.23 L 38.39 120.77 L 38.37 121.34 L 38.12 121.89 L 37.57 122.35 L 36.91 122.51 M 44.43 127.44 L 43.66 127.23 L 41.07 125.63 L 40.64 125.22 L 40.41 124.69 L 40.40 124.12 L 40.61 123.56 L 41.03 123.13 L 41.55 122.90 L 42.12 122.88 L 42.68 123.10 L 45.20 124.66 L 45.65 125.06 L 45.88 125.58 L 45.92 126.15 L 45.71 126.71 L 45.15 127.26 L 44.43 127.44 M 52.27 131.85 L 51.57 131.68 L 48.91 130.24 L 48.45 129.85 L 48.19 129.34 L 48.14 128.78 L 48.32 128.20 L 48.71 127.74 L 49.22 127.49 L 49.79 127.43 L 50.36 127.61 L 52.97 129.03 L 53.44 129.41 L 53.71 129.91 L 53.77 130.48 L 53.60 131.05 L 53.03 131.64 L 52.27 131.85 M 60.31 135.90 L 59.66 135.75 L 56.95 134.43 L 56.48 134.06 L 56.19 133.56 L 56.12 133.00 L 56.27 132.42 L 56.64 131.94 L 57.14 131.66 L 57.70 131.59 L 58.28 131.74 L 60.96 133.05 L 61.44 133.41 L 61.73 133.90 L 61.81 134.47 L 61.66 135.05 L 61.10 135.68 L 60.31 135.90 M 68.48 139.68 L 67.87 139.55 L 65.12 138.31 L 64.63 137.96 L 64.34 137.47 L 64.24 136.91 L 64.38 136.32 L 64.73 135.84 L 65.22 135.54 L 65.78 135.44 L 66.37 135.58 L 69.09 136.81 L 69.58 137.16 L 69.88 137.64 L 69.98 138.20 L 69.85 138.79 L 69.28 139.45 L 68.48 139.68" fill="#a3b1bf" fill-rule="evenodd" group-id="1,2" id="Fill-1" node-id="56" stroke-linecap="butt" stroke-width="1" target-height="121.674736" target-width="232.532" target-x="22.314604" target-y="18.003761"></path><path d="M 222.31 22.70 L 221.83 22.62 L 221.39 22.39 L 219.05 20.78 L 218.61 20.37 L 218.38 19.85 L 218.36 19.28 L 218.56 18.71 L 218.97 18.27 L 219.49 18.04 L 220.06 18.02 L 220.63 18.22 L 223.23 20.02 L 223.62 20.47 L 223.80 21.02 L 223.76 21.59 L 223.49 22.12 L 222.95 22.56 L 222.31 22.70 M 227.23 29.96 L 226.70 29.86 L 226.25 29.59 L 225.92 29.19 L 225.74 28.66 L 225.47 27.51 L 224.97 26.34 L 224.79 25.77 L 224.85 25.20 L 225.12 24.70 L 225.58 24.31 L 226.15 24.14 L 226.72 24.19 L 227.22 24.46 L 227.61 24.92 L 228.33 26.58 L 228.72 28.26 L 228.68 28.86 L 228.42 29.37 L 228.00 29.75 L 227.43 29.95 L 227.23 29.96 M 224.26 38.15 L 223.78 38.07 L 223.32 37.82 L 222.94 37.35 L 222.77 36.81 L 222.82 36.24 L 223.10 35.71 L 224.64 33.46 L 225.03 33.00 L 225.54 32.74 L 226.11 32.69 L 226.68 32.87 L 227.14 33.26 L 227.40 33.77 L 227.45 34.34 L 227.26 34.91 L 225.43 37.60 L 224.90 38.01 L 224.26 38.15 M 217.65 44.21 L 216.99 44.05 L 216.44 43.60 L 216.19 43.05 L 216.17 42.48 L 216.36 41.94 L 216.76 41.50 L 219.05 39.71 L 219.58 39.42 L 220.15 39.37 L 220.70 39.53 L 221.17 39.90 L 221.45 40.43 L 221.51 41.00 L 221.35 41.55 L 220.97 42.01 L 218.54 43.91 L 217.65 44.21 M 210.10 49.09 L 209.36 48.90 L 208.80 48.34 L 208.61 47.77 L 208.65 47.20 L 208.90 46.69 L 209.35 46.29 L 211.88 44.77 L 212.45 44.57 L 213.02 44.59 L 213.54 44.82 L 213.95 45.26 L 214.16 45.82 L 214.13 46.39 L 213.90 46.91 L 213.46 47.33 L 210.85 48.89 L 210.10 49.09 M 202.16 53.32 L 201.38 53.10 L 200.81 52.49 L 200.66 51.91 L 200.74 51.34 L 201.02 50.84 L 201.49 50.47 L 204.14 49.13 L 204.72 48.97 L 205.29 49.03 L 205.79 49.30 L 206.17 49.77 L 206.33 50.35 L 206.26 50.92 L 205.99 51.42 L 205.52 51.79 L 202.83 53.16 L 202.16 53.32 M 194.01 57.14 L 193.21 56.90 L 192.64 56.24 L 192.51 55.66 L 192.61 55.10 L 192.91 54.61 L 193.40 54.26 L 196.12 53.04 L 196.70 52.90 L 197.27 53.00 L 197.75 53.29 L 198.11 53.77 L 198.24 54.36 L 198.15 54.92 L 197.85 55.41 L 197.37 55.76 L 194.62 57.01 L 194.01 57.14 M 83.86 96.38 L 83.05 96.14 L 82.48 95.47 L 82.36 94.89 L 82.46 94.33 L 82.77 93.85 L 83.26 93.50 L 86.04 92.32 L 86.63 92.20 L 87.19 92.32 L 87.66 92.63 L 88.00 93.12 L 88.12 93.71 L 88.01 94.27 L 87.69 94.75 L 87.20 95.09 L 84.45 96.26 L 83.86 96.38 M 75.68 100.12 L 74.89 99.91 L 74.33 99.28 L 74.18 98.70 L 74.26 98.14 L 74.54 97.64 L 75.02 97.28 L 77.75 95.98 L 78.33 95.84 L 78.90 95.93 L 79.39 96.22 L 79.74 96.70 L 79.88 97.29 L 79.79 97.85 L 79.50 98.34 L 79.02 98.69 L 76.33 99.97 L 75.68 100.12 M 67.71 104.31 L 66.98 104.12 L 66.41 103.56 L 66.22 102.99 L 66.27 102.42 L 66.52 101.91 L 66.97 101.51 L 69.62 100.03 L 70.19 99.86 L 70.76 99.92 L 71.27 100.18 L 71.65 100.64 L 71.83 101.22 L 71.77 101.78 L 71.51 102.29 L 71.05 102.68 L 68.46 104.11 L 67.71 104.31 M 60.18 109.21 L 59.52 109.06 L 58.98 108.61 L 58.72 108.07 L 58.69 107.50 L 58.87 106.96 L 59.27 106.51 L 61.78 104.73 L 62.33 104.50 L 62.90 104.50 L 63.43 104.71 L 63.86 105.13 L 64.09 105.69 L 64.09 106.26 L 63.88 106.79 L 63.46 107.22 L 61.08 108.91 L 60.18 109.21 M 53.74 115.44 L 52.87 115.16 L 52.46 114.72 L 52.26 114.19 L 52.28 113.62 L 52.52 113.07 L 54.58 110.61 L 55.07 110.27 L 55.63 110.15 L 56.19 110.25 L 56.70 110.56 L 57.04 111.06 L 57.16 111.62 L 57.07 112.18 L 56.75 112.69 L 54.96 114.82 L 54.41 115.29 L 53.74 115.44 M 51.88 123.87 L 51.01 123.59 L 50.45 122.83 L 50.11 121.42 L 50.00 120.00 L 50.03 119.30 L 50.19 118.72 L 50.55 118.28 L 51.05 117.99 L 51.63 117.92 L 52.21 118.08 L 52.66 118.44 L 52.94 118.93 L 53.02 119.53 L 53.00 119.99 L 53.30 121.91 L 53.37 122.51 L 53.21 123.05 L 52.86 123.50 L 52.34 123.80 L 51.88 123.87 M 57.58 130.62 L 56.72 130.35 L 54.23 128.35 L 53.88 127.86 L 53.75 127.31 L 53.83 126.74 L 54.14 126.23 L 54.63 125.88 L 55.19 125.75 L 55.75 125.84 L 56.26 126.14 L 58.45 127.89 L 58.86 128.33 L 59.06 128.86 L 59.05 129.44 L 58.81 129.98 L 58.26 130.46 L 57.58 130.62 M 65.48 134.90 L 64.88 134.77 L 62.10 133.48 L 61.62 133.12 L 61.34 132.62 L 61.26 132.06 L 61.42 131.48 L 61.78 131.00 L 62.28 130.72 L 62.84 130.64 L 63.42 130.80 L 66.08 132.02 L 66.57 132.37 L 66.88 132.85 L 66.98 133.41 L 66.86 134.00 L 66.29 134.66 L 65.48 134.90" fill="#a3b1bf" fill-opacity="0.25385976" fill-rule="nonzero" group-id="1,2,6" id="Fill-1" node-id="57" stroke-linecap="butt" stroke-opacity="0.25385976" stroke-width="1" target-height="116.88356" target-width="178.716" target-x="49.9997" target-y="18.016232"></path></g></g></svg>